<svg xmlns="http://www.w3.org/2000/svg" width="351" height="64" fill="none"><path fill="#fff" d="M83.952 57.5V12.429h16.065c3.507 0 6.412.638 8.715 1.914 2.304 1.277 4.028 3.023 5.172 5.238 1.144 2.2 1.717 4.68 1.717 7.439 0 2.773-.58 5.267-1.739 7.482-1.144 2.2-2.876 3.947-5.194 5.238-2.303 1.276-5.201 1.915-8.693 1.915H88.947v-5.766H99.38c2.215 0 4.013-.382 5.392-1.145 1.379-.777 2.391-1.834 3.037-3.169.645-1.335.968-2.854.968-4.555 0-1.702-.323-3.213-.968-4.534-.646-1.32-1.665-2.355-3.059-3.103-1.379-.748-3.199-1.122-5.458-1.122h-8.539V57.5h-6.8Zm52.618.682c-3.169 0-5.935-.726-8.297-2.178-2.362-1.453-4.196-3.485-5.502-6.097-1.306-2.611-1.958-5.663-1.958-9.155 0-3.506.652-6.573 1.958-9.199 1.306-2.626 3.14-4.666 5.502-6.118 2.362-1.452 5.128-2.179 8.297-2.179 3.169 0 5.935.727 8.297 2.179 2.362 1.453 4.196 3.492 5.502 6.118 1.305 2.626 1.958 5.693 1.958 9.2 0 3.491-.653 6.543-1.958 9.154-1.306 2.612-3.14 4.644-5.502 6.097-2.362 1.452-5.128 2.178-8.297 2.178Zm.022-5.524c2.054 0 3.756-.543 5.106-1.628 1.35-1.086 2.347-2.531 2.993-4.336.66-1.804.99-3.792.99-5.964 0-2.156-.33-4.137-.99-5.942-.646-1.82-1.643-3.279-2.993-4.38-1.35-1.1-3.052-1.65-5.106-1.65-2.069 0-3.785.55-5.15 1.65-1.35 1.101-2.355 2.56-3.015 4.38-.645 1.805-.968 3.786-.968 5.942 0 2.172.323 4.16.968 5.964.66 1.805 1.665 3.25 3.015 4.336 1.365 1.085 3.081 1.628 5.15 1.628Zm22.771 4.842V23.696h6.36v5.37h.352c.616-1.819 1.702-3.25 3.257-4.291 1.57-1.057 3.345-1.585 5.326-1.585.411 0 .895.015 1.452.044.572.03 1.02.066 1.343.11v6.294c-.264-.073-.734-.154-1.409-.242a13.441 13.441 0 0 0-2.024-.154c-1.556 0-2.942.33-4.16.99a7.356 7.356 0 0 0-2.861 2.708c-.704 1.144-1.056 2.45-1.056 3.917V57.5h-6.58Zm41.251-33.804v5.282H182.15v-5.282h18.464Zm-13.513-8.098h6.581v31.977c0 1.276.19 2.237.572 2.883.381.63.873 1.063 1.474 1.298.616.22 1.284.33 2.003.33.528 0 .99-.036 1.386-.11a63 63 0 0 0 .925-.176l1.188 5.436c-.381.147-.924.293-1.628.44-.705.161-1.585.25-2.641.264-1.732.03-3.346-.279-4.842-.924a8.3 8.3 0 0 1-3.631-2.993c-.925-1.35-1.387-3.045-1.387-5.084V15.598Zm36.57 8.098v5.282h-19.103v-5.282h19.103ZM209.806 57.5V19.78c0-2.114.462-3.867 1.386-5.26a8.507 8.507 0 0 1 3.676-3.148c1.525-.704 3.183-1.056 4.973-1.056 1.321 0 2.45.11 3.389.33.939.205 1.636.396 2.091.572l-1.54 5.326c-.309-.088-.705-.19-1.189-.308-.484-.132-1.071-.198-1.76-.198-1.6 0-2.744.396-3.434 1.188-.675.793-1.012 1.937-1.012 3.433V57.5h-6.58Zm33.251.682c-3.169 0-5.934-.726-8.296-2.178-2.363-1.453-4.197-3.485-5.502-6.097-1.306-2.611-1.959-5.663-1.959-9.155 0-3.506.653-6.573 1.959-9.199 1.305-2.626 3.139-4.666 5.502-6.118 2.362-1.452 5.127-2.179 8.296-2.179 3.17 0 5.935.727 8.297 2.179 2.362 1.453 4.196 3.492 5.502 6.118 1.306 2.626 1.959 5.693 1.959 9.2 0 3.491-.653 6.543-1.959 9.154-1.306 2.612-3.14 4.644-5.502 6.097-2.362 1.452-5.127 2.178-8.297 2.178Zm.022-5.524c2.054 0 3.756-.543 5.106-1.628 1.35-1.086 2.348-2.531 2.993-4.336.66-1.804.991-3.792.991-5.964 0-2.156-.331-4.137-.991-5.942-.645-1.82-1.643-3.279-2.993-4.38-1.35-1.1-3.052-1.65-5.106-1.65-2.068 0-3.785.55-5.149 1.65-1.35 1.101-2.355 2.56-3.015 4.38-.646 1.805-.969 3.786-.969 5.942 0 2.172.323 4.16.969 5.964.66 1.805 1.665 3.25 3.015 4.336 1.364 1.085 3.081 1.628 5.149 1.628Zm29.351-40.23V57.5h-6.58V12.429h6.58Zm8.543 45.072V23.696h6.58V57.5h-6.58Zm3.323-39.02c-1.144 0-2.127-.38-2.949-1.144-.807-.777-1.21-1.702-1.21-2.773 0-1.085.403-2.01 1.21-2.773.822-.777 1.805-1.166 2.949-1.166s2.12.389 2.927 1.166c.822.763 1.232 1.688 1.232 2.773 0 1.071-.41 1.996-1.232 2.773-.807.763-1.783 1.145-2.927 1.145Zm27.579 5.216v5.282h-18.464v-5.282h18.464Zm-13.512-8.098h6.58v31.977c0 1.276.191 2.237.572 2.883.382.63.873 1.063 1.475 1.298a5.91 5.91 0 0 0 2.002.33c.528 0 .991-.036 1.387-.11.396-.073.704-.132.924-.176l1.188 5.436c-.381.147-.924.293-1.628.44-.704.161-1.585.25-2.641.264-1.731.03-3.345-.279-4.842-.924a8.305 8.305 0 0 1-3.631-2.993c-.924-1.35-1.386-3.045-1.386-5.084V15.598Zm34.687 42.584c-3.33 0-6.199-.711-8.605-2.135-2.391-1.437-4.24-3.455-5.546-6.052-1.291-2.611-1.936-5.67-1.936-9.177 0-3.462.645-6.514 1.936-9.155 1.306-2.64 3.125-4.702 5.458-6.184 2.348-1.482 5.091-2.223 8.231-2.223 1.907 0 3.756.316 5.546.947 1.79.63 3.396 1.62 4.82 2.97 1.423 1.35 2.545 3.104 3.367 5.26.821 2.142 1.232 4.747 1.232 7.813v2.333h-26.871v-4.93h20.423c0-1.731-.352-3.264-1.056-4.6a7.995 7.995 0 0 0-2.971-3.19c-1.262-.778-2.744-1.167-4.446-1.167-1.849 0-3.462.455-4.842 1.365a9.167 9.167 0 0 0-3.169 3.52c-.733 1.439-1.1 3.001-1.1 4.688v3.852c0 2.26.396 4.181 1.188 5.766.807 1.584 1.93 2.795 3.368 3.63 1.437.823 3.117 1.233 5.039 1.233 1.247 0 2.384-.176 3.411-.528a7.366 7.366 0 0 0 2.663-1.628c.749-.72 1.321-1.607 1.717-2.663l6.228 1.122a11.282 11.282 0 0 1-2.685 4.82c-1.276 1.364-2.883 2.428-4.82 3.19-1.922.75-4.115 1.123-6.58 1.123Z"/><path fill="url(#a)" d="M83.952 57.5V12.429h16.065c3.507 0 6.412.638 8.715 1.914 2.304 1.277 4.028 3.023 5.172 5.238 1.144 2.2 1.717 4.68 1.717 7.439 0 2.773-.58 5.267-1.739 7.482-1.144 2.2-2.876 3.947-5.194 5.238-2.303 1.276-5.201 1.915-8.693 1.915H88.947v-5.766H99.38c2.215 0 4.013-.382 5.392-1.145 1.379-.777 2.391-1.834 3.037-3.169.645-1.335.968-2.854.968-4.555 0-1.702-.323-3.213-.968-4.534-.646-1.32-1.665-2.355-3.059-3.103-1.379-.748-3.199-1.122-5.458-1.122h-8.539V57.5h-6.8Zm52.618.682c-3.169 0-5.935-.726-8.297-2.178-2.362-1.453-4.196-3.485-5.502-6.097-1.306-2.611-1.958-5.663-1.958-9.155 0-3.506.652-6.573 1.958-9.199 1.306-2.626 3.14-4.666 5.502-6.118 2.362-1.452 5.128-2.179 8.297-2.179 3.169 0 5.935.727 8.297 2.179 2.362 1.453 4.196 3.492 5.502 6.118 1.305 2.626 1.958 5.693 1.958 9.2 0 3.491-.653 6.543-1.958 9.154-1.306 2.612-3.14 4.644-5.502 6.097-2.362 1.452-5.128 2.178-8.297 2.178Zm.022-5.524c2.054 0 3.756-.543 5.106-1.628 1.35-1.086 2.347-2.531 2.993-4.336.66-1.804.99-3.792.99-5.964 0-2.156-.33-4.137-.99-5.942-.646-1.82-1.643-3.279-2.993-4.38-1.35-1.1-3.052-1.65-5.106-1.65-2.069 0-3.785.55-5.15 1.65-1.35 1.101-2.355 2.56-3.015 4.38-.645 1.805-.968 3.786-.968 5.942 0 2.172.323 4.16.968 5.964.66 1.805 1.665 3.25 3.015 4.336 1.365 1.085 3.081 1.628 5.15 1.628Zm22.771 4.842V23.696h6.36v5.37h.352c.616-1.819 1.702-3.25 3.257-4.291 1.57-1.057 3.345-1.585 5.326-1.585.411 0 .895.015 1.452.044.572.03 1.02.066 1.343.11v6.294c-.264-.073-.734-.154-1.409-.242a13.441 13.441 0 0 0-2.024-.154c-1.556 0-2.942.33-4.16.99a7.356 7.356 0 0 0-2.861 2.708c-.704 1.144-1.056 2.45-1.056 3.917V57.5h-6.58Zm41.251-33.804v5.282H182.15v-5.282h18.464Zm-13.513-8.098h6.581v31.977c0 1.276.19 2.237.572 2.883.381.63.873 1.063 1.474 1.298.616.22 1.284.33 2.003.33.528 0 .99-.036 1.386-.11a63 63 0 0 0 .925-.176l1.188 5.436c-.381.147-.924.293-1.628.44-.705.161-1.585.25-2.641.264-1.732.03-3.346-.279-4.842-.924a8.3 8.3 0 0 1-3.631-2.993c-.925-1.35-1.387-3.045-1.387-5.084V15.598Zm36.57 8.098v5.282h-19.103v-5.282h19.103ZM209.806 57.5V19.78c0-2.114.462-3.867 1.386-5.26a8.507 8.507 0 0 1 3.676-3.148c1.525-.704 3.183-1.056 4.973-1.056 1.321 0 2.45.11 3.389.33.939.205 1.636.396 2.091.572l-1.54 5.326c-.309-.088-.705-.19-1.189-.308-.484-.132-1.071-.198-1.76-.198-1.6 0-2.744.396-3.434 1.188-.675.793-1.012 1.937-1.012 3.433V57.5h-6.58Zm33.251.682c-3.169 0-5.934-.726-8.296-2.178-2.363-1.453-4.197-3.485-5.502-6.097-1.306-2.611-1.959-5.663-1.959-9.155 0-3.506.653-6.573 1.959-9.199 1.305-2.626 3.139-4.666 5.502-6.118 2.362-1.452 5.127-2.179 8.296-2.179 3.17 0 5.935.727 8.297 2.179 2.362 1.453 4.196 3.492 5.502 6.118 1.306 2.626 1.959 5.693 1.959 9.2 0 3.491-.653 6.543-1.959 9.154-1.306 2.612-3.14 4.644-5.502 6.097-2.362 1.452-5.127 2.178-8.297 2.178Zm.022-5.524c2.054 0 3.756-.543 5.106-1.628 1.35-1.086 2.348-2.531 2.993-4.336.66-1.804.991-3.792.991-5.964 0-2.156-.331-4.137-.991-5.942-.645-1.82-1.643-3.279-2.993-4.38-1.35-1.1-3.052-1.65-5.106-1.65-2.068 0-3.785.55-5.149 1.65-1.35 1.101-2.355 2.56-3.015 4.38-.646 1.805-.969 3.786-.969 5.942 0 2.172.323 4.16.969 5.964.66 1.805 1.665 3.25 3.015 4.336 1.364 1.085 3.081 1.628 5.149 1.628Zm29.351-40.23V57.5h-6.58V12.429h6.58Zm8.543 45.072V23.696h6.58V57.5h-6.58Zm3.323-39.02c-1.144 0-2.127-.38-2.949-1.144-.807-.777-1.21-1.702-1.21-2.773 0-1.085.403-2.01 1.21-2.773.822-.777 1.805-1.166 2.949-1.166s2.12.389 2.927 1.166c.822.763 1.232 1.688 1.232 2.773 0 1.071-.41 1.996-1.232 2.773-.807.763-1.783 1.145-2.927 1.145Zm27.579 5.216v5.282h-18.464v-5.282h18.464Zm-13.512-8.098h6.58v31.977c0 1.276.191 2.237.572 2.883.382.63.873 1.063 1.475 1.298a5.91 5.91 0 0 0 2.002.33c.528 0 .991-.036 1.387-.11.396-.073.704-.132.924-.176l1.188 5.436c-.381.147-.924.293-1.628.44-.704.161-1.585.25-2.641.264-1.731.03-3.345-.279-4.842-.924a8.305 8.305 0 0 1-3.631-2.993c-.924-1.35-1.386-3.045-1.386-5.084V15.598Zm34.687 42.584c-3.33 0-6.199-.711-8.605-2.135-2.391-1.437-4.24-3.455-5.546-6.052-1.291-2.611-1.936-5.67-1.936-9.177 0-3.462.645-6.514 1.936-9.155 1.306-2.64 3.125-4.702 5.458-6.184 2.348-1.482 5.091-2.223 8.231-2.223 1.907 0 3.756.316 5.546.947 1.79.63 3.396 1.62 4.82 2.97 1.423 1.35 2.545 3.104 3.367 5.26.821 2.142 1.232 4.747 1.232 7.813v2.333h-26.871v-4.93h20.423c0-1.731-.352-3.264-1.056-4.6a7.995 7.995 0 0 0-2.971-3.19c-1.262-.778-2.744-1.167-4.446-1.167-1.849 0-3.462.455-4.842 1.365a9.167 9.167 0 0 0-3.169 3.52c-.733 1.439-1.1 3.001-1.1 4.688v3.852c0 2.26.396 4.181 1.188 5.766.807 1.584 1.93 2.795 3.368 3.63 1.437.823 3.117 1.233 5.039 1.233 1.247 0 2.384-.176 3.411-.528a7.366 7.366 0 0 0 2.663-1.628c.749-.72 1.321-1.607 1.717-2.663l6.228 1.122a11.282 11.282 0 0 1-2.685 4.82c-1.276 1.364-2.883 2.428-4.82 3.19-1.922.75-4.115 1.123-6.58 1.123Z"/><path fill="url(#b)" d="M29.5 20.5V0H20C8.954 0 0 8.954 0 20v9.5h20.5a9 9 0 0 0 9-9Z"/><path fill="url(#c)" d="M0 34.5V44c0 11.046 8.954 20 20 20h9.5V43.5a9 9 0 0 0-9-9H0Z"/><path fill="url(#d)" d="M34.5 64H64V34.5H43.5a9 9 0 0 0-9 9V64Z"/><path fill="url(#e)" d="M64 29.5V20C64 8.954 55.046 0 44 0h-9.5v20.5a9 9 0 0 0 9 9H64Z"/><defs><linearGradient id="a" x1="215" x2="215" y1="1" y2="57" gradientUnits="userSpaceOnUse"><stop stop-color="#fff"/><stop offset="1" stop-color="#737373"/></linearGradient><linearGradient id="b" x1="32" x2="32" y1="-20" y2="61.5" gradientUnits="userSpaceOnUse"><stop stop-color="#fff"/><stop offset="1" stop-color="#737373"/></linearGradient><linearGradient id="c" x1="32" x2="32" y1="-20" y2="61.5" gradientUnits="userSpaceOnUse"><stop stop-color="#fff"/><stop offset="1" stop-color="#737373"/></linearGradient><linearGradient id="d" x1="32" x2="32" y1="-20" y2="61.5" gradientUnits="userSpaceOnUse"><stop stop-color="#fff"/><stop offset="1" stop-color="#737373"/></linearGradient><linearGradient id="e" x1="32" x2="32" y1="-20" y2="61.5" gradientUnits="userSpaceOnUse"><stop stop-color="#fff"/><stop offset="1" stop-color="#737373"/></linearGradient></defs></svg>